<?xml version="1.0" encoding="UTF-8" standalone="no"?>
<svg width="111px" height="59px" viewBox="0 0 111 59" version="1.1" xmlns="http://www.w3.org/2000/svg" xmlns:xlink="http://www.w3.org/1999/xlink">
    <!-- Generator: Sketch 42 (36781) - http://www.bohemiancoding.com/sketch -->
    <title>dok_logo</title>
    <desc>Created with Sketch.</desc>
    <defs>
        <filter x="-50%" y="-50%" width="200%" height="200%" filterUnits="objectBoundingBox" id="filter-1">
            <feOffset dx="0" dy="0" in="SourceAlpha" result="shadowOffsetOuter1"></feOffset>
            <feMerge>
                <feMergeNode in="shadowMatrixOuter1"></feMergeNode>
                <feMergeNode in="SourceGraphic"></feMergeNode>
            </feMerge>
        </filter>
    </defs>
    <g id="Page-1" stroke="none" stroke-width="1" fill="none" fill-rule="evenodd">
        <g id="Home" transform="translate(-163.000000, -6.000000)" fill="#FFFFFF">
            <g id="dok_logo" transform="translate(178.000000, 19.000000)">
                <path d="M70.9936177,12.2959047 C71.3754259,11.7607644 71.6144555,11.2894794 71.9770845,10.945116 C72.7871393,10.1756928 73.6066949,9.45872223 74.5761323,8.81727304 C76.2879647,7.68445254 77.5302618,5.859309 78.9691457,4.3238833 C78.9016633,4.24932679 78.8340922,4.17468255 78.7664322,4.10003832 C76.3769349,5.54441735 73.9874375,6.98870866 71.5978513,8.43308769 L71.9672285,8.67851021 C71.6507717,9.28092687 71.3525174,9.89369373 71.0127081,10.4831288 C70.6733429,11.0716867 70.189512,11.6357725 70.9936177,12.2959047 M71.3938947,14.1999905 C74.5492282,19.3939483 77.7030522,24.5854502 81.0297553,30.0615826 L79.5906051,30.0615826 C78.2208018,30.0613194 77.1186194,30.0380753 75.4879435,30.099738 C73.7156434,30.0998257 72.6205644,30.0668454 71.8961944,30.0577232 C71.4411324,29.3787326 70.9634283,28.5878195 70.0897092,26.9123153 C69.025974,24.4955438 67.5414506,22.2594623 66.1686284,19.8138331 C64.8970297,21.2011983 63.7115599,22.4299774 62.6179016,23.7337516 C62.3503695,24.0525904 62.3027767,24.6153605 62.2922991,25.0691027 C62.255095,26.6743484 62.2778259,28.2810852 62.2778259,29.9728164 L54.1950365,29.9728164 C54.1732823,29.5045138 54.1366998,29.0803311 54.1364334,28.6561483 C54.1323489,21.104538 54.1560566,13.5528399 54.1068655,6.00158037 C54.0994957,4.86823359 54.3875388,4.46194443 55.5769156,4.50983603 C57.7344867,4.59693558 59.8981845,4.53457125 62.2276581,4.53457125 L62.2276581,14.0317559 C63.1885715,12.6294794 64.1218704,12.5900083 65.18161,13.0942735 C65.363546,13.1808467 65.7516584,13.1375162 65.8761456,13.0025251 C66.9130655,11.8793531 68.1806685,10.8501223 68.8292984,9.52924393 C69.2993663,8.57176281 69.9206481,8.05995425 70.6900359,7.50218379 C72.9947363,5.8315038 75.2704016,4.12179128 77.5608065,2.43181432 C78.0915198,2.04017332 78.6082038,1.61923599 79.1802945,1.29636241 C79.8916119,0.894985207 80.6536299,0.581409266 81.6933024,0.0876696932 C81.44344,3.94469763 81.2193275,7.50604318 80.9559687,11.0644942 C80.9463791,11.1949242 80.5526728,11.2976368 80.1707758,11.5033251 C80.3613247,8.80087061 80.5402418,6.26401931 80.7189813,3.72716802 L80.3571515,3.5710379 C77.3750524,7.1073851 74.3929532,10.6436446 71.3938947,14.1999905" id="Fill-3"></path>
                <path d="M45.1300856,20.7350359 C44.3792555,23.124967 42.6488655,24.4404071 40.1672014,24.5478562 L39.0990266,24.5478562 C36.6174513,24.4404071 34.8869725,23.124967 34.1362311,20.7350359 C33.4923073,18.6853456 33.4690436,16.6025874 33.9880363,14.5314073 C34.7277674,11.579057 36.8799222,9.88951856 39.6266321,10.0174049 L39.6266321,10.0176681 C39.6288519,10.0175803 39.6308942,10.0175803 39.633114,10.0174926 C39.6353338,10.0175803 39.6374648,10.0175803 39.6395958,10.0176681 L39.6396846,10.0174049 C42.3863946,9.88951856 44.5385494,11.579057 45.2782804,14.5314073 C45.7972731,16.6025874 45.7740095,18.6853456 45.1300856,20.7350359 M39.7790002,3.62922707 L39.7790002,3.62870079 C39.7301643,3.62834994 39.6818611,3.62905165 39.6332028,3.62905165 C39.5844556,3.62905165 39.5361525,3.62834994 39.4872278,3.62870079 L39.4872278,3.62922707 C31.073242,3.68413575 25.5756488,9.01983871 25.5068345,17.2421069 C25.4374875,25.5239326 30.7768523,30.8603372 39.1837347,30.9114742 L40.0824933,30.9114742 C48.4893757,30.8603372 53.8287404,25.5239326 53.7594822,17.2421069 C53.6905792,9.01983871 48.192986,3.68413575 39.7790002,3.62922707" id="Fill-6"></path>
                <path d="M8.15786356,24.3090999 C9.33196797,24.3090999 10.4226961,24.3230464 11.5130691,24.3062053 C13.6407172,24.2732251 15.0984251,23.2303987 15.8980024,21.3202607 C16.9536575,18.7984084 16.9194723,16.2337519 16.0395378,13.6698849 C15.5974395,12.3817237 14.8793738,11.1702241 13.4942094,10.8792783 C11.7723435,10.5175476 9.97828923,10.4909704 8.15786356,10.3140521 L8.15786356,24.3090999 Z M4.43962948e-05,29.98864 L4.43962948e-05,4.82906072 C0.132966903,4.74634684 0.2048889,4.66214184 0.275745387,4.66310669 C5.12728369,4.72503245 9.99391673,4.58135766 14.8260982,4.91879168 C20.1716785,5.29192513 23.2082075,8.11665229 24.4136557,13.3199078 C25.2289492,16.8395017 25.0262358,20.3351498 23.6299723,23.7102795 C22.035435,27.5641497 19.0288291,29.7334813 14.9147132,29.9324156 C9.99205208,30.1705579 5.04852466,29.98864 4.43962948e-05,29.98864 L4.43962948e-05,29.98864 Z" id="Fill-1"></path>
            </g>
        </g>
    </g>
</svg>
