<svg id="Layer_1" data-name="Layer 1" xmlns="http://www.w3.org/2000/svg" width="37" height="37" viewBox="0 0 37 37"><title>facebook_logo</title><path d="M18.32567,37H3.703a2.10377,2.10377,0,0,0-.2821-.15766,4.95076,4.95076,0,0,1-3.42033-4.926Q.0004,18.42546.00151,4.93458A4.935,4.935,0,0,1,4.92546.00281q13.57148-.00559,27.143,0a4.92017,4.92017,0,0,1,4.92244,4.87522q.02049,13.66019-.00053,27.32042c-.00163,1.31211-.07481,3.04921-1.07532,3.913A4.77175,4.77175,0,0,1,33.28843,37H24.10673c.0106-.24372.03021-.48743.03046-.73116q.00607-5.87074.00775-11.74149c.00012-.218,0-.43591,0-.70085,1.53377,0,2.98511-.00893,4.43623.00458a.84418.84418,0,0,0,.95706-.76151q.28389-2.09192.48614-4.19445c.0589-.62244-.312-.97644-.9612-.98485-1.11429-.01444-2.22891-.0046-3.34338-.00487-.50481-.00012-1.00962,0-1.53354,0,0-1.48963-.09318-2.92024.02816-4.33257.10562-1.22929.85137-1.77168,2.11993-1.812.83036-.0264,1.66221-.00267,2.493-.01942.6845-.01379,1.02657-.32907,1.03837-.99706q.03039-1.72116.00076-3.44319a.86363.86363,0,0,0-.99119-.97286c-1.41528-.001-2.83438-.0264-4.24512.06378a6.22778,6.22778,0,0,0-6.09186,5.29272A26.50441,26.50441,0,0,0,18.293,15.5887c-.03082.74514-.00557,1.49258-.00557,2.29711-1.12606,0-2.17943-.00575-3.23271.00218-.62108.00468-1.03034.31127-1.03721.87925q-.02595,2.14337.04719,4.28744a.76629.76629,0,0,0,.86881.77191c.26443-.00211.5289.00016.79335.00018.84189.00008,1.68379,0,2.56337,0,0,2.06177-.00453,4.03507.00117,6.00833C18.29831,32.22344,18.31386,34.61171,18.32567,37Z"/></svg>