<svg xmlns="http://www.w3.org/2000/svg" width="37" height="37" viewBox="0 0 37 37"><title>instagram_logo</title><g id="Layer_1" data-name="Layer 1"><g id="Page-1"><g id="Home"><g id="footer"><path d="M.185,26.085v-14.8c.05889-.42215.14719-.84257.17215-1.26671A9.83562,9.83562,0,0,1,8.29643.63053C9.2787.41775,10.2881.33023,11.285.185h14.8c.42087.0591.84.14784,1.26289.17275a9.77872,9.77872,0,0,1,9.324,7.77331c.26107,1.09144.34673,2.22484.51307,3.33893V25.715c-.06285.54449-.15286,1.08742-.18429,1.63371a9.76636,9.76636,0,0,1-7.75046,9.315c-1.15457.27419-2.35558.35281-3.53525.5213H11.47c-.483-.0626-.96421-.15533-1.44917-.18314A9.84937,9.84937,0,0,1,.61032,28.98625C.41265,28.03073.32394,27.05267.185,26.085Zm18.39155,7.60165.00008-.00754c2.74262,0,5.48707.06158,8.22724-.02036A6.79741,6.79741,0,0,0,32.05,31.33031a7.05633,7.05633,0,0,0,1.61638-4.61962c.04942-5.29994.10235-10.60214-.00013-15.90048-.08586-4.4389-2.63547-6.97915-7.072-7.11368-4.52794-.13731-9.06087-.14337-13.59152-.13716a20.58269,20.58269,0,0,0-4.13307.38751C5.74833,4.59518,3.78109,7.02366,3.7151,10.512c-.102,5.39046-.11931,10.786-.0065,16.17595.09022,4.31077,2.69427,6.83452,7.01054,6.98219C13.33541,33.75967,15.95723,33.68666,18.57655,33.68666Z" transform="translate(-0.185 -0.185)"/><path d="M9.19238,18.63637a9.48751,9.48751,0,1,1,9.46715,9.53049A9.4282,9.4282,0,0,1,9.19238,18.63637Zm9.4566,6.17689a6.13215,6.13215,0,1,0-6.09945-6.18744A6.0809,6.0809,0,0,0,18.649,24.81327Z" transform="translate(-0.185 -0.185)"/><path d="M30.75892,8.77455a2.22571,2.22571,0,0,1-2.17411,2.27288A2.29537,2.29537,0,0,1,26.30706,8.8463,2.22352,2.22352,0,0,1,28.5143,6.60789,2.14352,2.14352,0,0,1,30.75892,8.77455Z" transform="translate(-0.185 -0.185)"/></g></g></g></g></svg>