<svg xmlns="http://www.w3.org/2000/svg" width="44.20022" height="36.12449" viewBox="0 0 44.20022 36.12449"><title>twitter_logo</title><g id="Layer_1" data-name="Layer 1"><path d="M30.24678.67624a5.86609,5.86609,0,0,1,2.90038,0,1.788,1.788,0,0,0,.26037.07322,9.24758,9.24758,0,0,1,4.67311,2.39122.97541.97541,0,0,0,1.02508.18823,18.26357,18.26357,0,0,0,4.37711-1.659c.16985-.09025.369-.31237.55118-.12934.16436.16509-.00531.39286-.08587.5745A9.19254,9.19254,0,0,1,41.43268,5.53c-.20325.16915-.47342.28186-.59.64756a19.26513,19.26513,0,0,0,4.40988-1.20817,1.23278,1.23278,0,0,1-.36835.75715A16.98487,16.98487,0,0,1,41.419,9.26574a1.05126,1.05126,0,0,0-.50029.98488,17.17325,17.17325,0,0,1-.14281,3.4382A25.9109,25.9109,0,0,1,31.35332,30.936a24.3239,24.3239,0,0,1-13.799,5.56283,26.12933,26.12933,0,0,1-16.03995-3.511c-.17526-.1043-.41759-.166-.462-.42374.05968-.02794.08025-.04611.1003-.04554.11457.00328.229.01087.34349.01727a18.44427,18.44427,0,0,0,11.97123-3.18489c.16-.11182.44457-.17965.402-.41974-.04714-.266-.33452-.17044-.52487-.20336A9.41584,9.41584,0,0,1,6.095,23.39515c-.43576-.88443-.3593-.98941.62084-.881a7.35111,7.35111,0,0,0,2.771-.22954,9.17016,9.17016,0,0,1-4.79017-3.00969,8.72789,8.72789,0,0,1-2.11139-5.356c-.02132-.48249.08777-.6474.57888-.41158a8.17258,8.17258,0,0,0,1.35154.5154,3.25949,3.25949,0,0,0,1.78443.21864c-.22866-.19745-.38119-.33369-.53844-.46426A9.11261,9.11261,0,0,1,3.53,2.9612c.32146-.63.40284-.63883.849-.14186A26.98071,26.98071,0,0,0,8.2128,6.37553a26.27143,26.27143,0,0,0,13.228,5.28623c1.23885.13435,1.265.10319,1.17049-1.15066a8.935,8.935,0,0,1,3.14034-7.6822A10.05,10.05,0,0,1,30.24678.67624Z" transform="translate(-1.05235 -0.49208)"/></g></svg>